<svg id="assessment-blue" xmlns="http://www.w3.org/2000/svg" width="30" height="30" viewBox="0 0 30 30">
  <path id="패스_8" data-name="패스 8" d="M0,0H30V30H0Z" fill="none"/>
  <path id="패스_9" data-name="패스 9" d="M23.319,3H5.54A2.547,2.547,0,0,0,3,5.54V23.319a2.547,2.547,0,0,0,2.54,2.54H23.319a2.547,2.547,0,0,0,2.54-2.54V5.54A2.547,2.547,0,0,0,23.319,3Zm0,20.319H5.54V5.54H23.319ZM8.08,11.889h2.54v8.889H8.08Zm5.08-3.81H15.7v12.7h-2.54Zm5.08,7.62h2.54v5.08h-2.54Z" transform="translate(0.571 0.571)" fill="#4b90ff"/>
</svg>
