<svg id="help_outline_black_24dp" xmlns="http://www.w3.org/2000/svg" width="23.736" height="23.736" viewBox="0 0 23.736 23.736">
  <path id="패스_22" data-name="패스 22" d="M0,0H23.736V23.736H0Z" fill="none"/>
  <path id="패스_23" data-name="패스 23" d="M10.9,17.824h1.978V15.846H10.9ZM11.89,2a9.89,9.89,0,1,0,9.89,9.89A9.894,9.894,0,0,0,11.89,2Zm0,17.8A7.912,7.912,0,1,1,19.8,11.89,7.922,7.922,0,0,1,11.89,19.8Zm0-13.846A3.955,3.955,0,0,0,7.934,9.912H9.912a1.978,1.978,0,1,1,3.956,0c0,1.978-2.967,1.731-2.967,4.945h1.978c0-2.225,2.967-2.472,2.967-4.945A3.955,3.955,0,0,0,11.89,5.956Z" transform="translate(-0.022 -0.022)" fill="#4b90ff"/>
</svg>
