<svg id="restart_alt_black_24dp" xmlns="http://www.w3.org/2000/svg" width="24" height="24" viewBox="0 0 24 24">
  <g id="그룹_93" data-name="그룹 93">
    <path id="패스_36" data-name="패스 36" d="M0,0H24V24H0Z" fill="none"/>
  </g>
  <g id="그룹_95" data-name="그룹 95">
    <g id="그룹_94" data-name="그룹 94">
      <path id="패스_37" data-name="패스 37" d="M6,13A5.979,5.979,0,0,1,7.76,8.76L6.34,7.34A8,8,0,0,0,11,20.93V18.91A6.007,6.007,0,0,1,6,13Zm14,0a8,8,0,0,0-8-8c-.06,0-.12.01-.18.01l1.09-1.09L11.5,2.5,8,6l3.5,3.5,1.41-1.41L11.83,7.01c.06,0,.12-.01.17-.01a6,6,0,0,1,1,11.91v2.02A7.988,7.988,0,0,0,20,13Z" fill="#8ea8d1"/>
    </g>
  </g>
</svg>
